<svg id="twit" data-name="Layer 1" xmlns="http://www.w3.org/2000/svg" viewBox="0 0 191.125 159.6699"><defs><style>.twit{fill:#07daf6;}</style></defs><title>twit</title><path class="twit" d="M63.5952,159.67c-1.2906,0-2.6114-.02-3.9219-.0605A109.1137,109.1137,0,0,1,5.3955,143.2725a11.44,11.44,0,0,1-2.33-1.9034,10.0058,10.0058,0,0,1,6.93-17.2187c.2861,0,.584.0127.87.0361,2.1983.1885,4.3682.2832,6.4507.2832a60.4922,60.4922,0,0,0,19.4717-3.039A45.5061,45.5061,0,0,1,19.1513,97.8a10.0245,10.0245,0,0,1,.1773-6.33C11.3759,83.6318,6.9135,72.9751,6.06,59.769a10.0079,10.0079,0,0,1,3.8394-8.54c-5.0234-11.8657-4.3652-24.9927,1.9629-39.05a9.9871,9.9871,0,0,1,7.709-5.7886A10.5838,10.5838,0,0,1,20.9853,6.29a10.036,10.036,0,0,1,7.6,3.51C43.7817,27.61,61.7221,38.1577,83.37,41.9951A44.23,44.23,0,0,1,97.955,11.8135,43.1989,43.1989,0,0,1,128.2158,0c1.0117,0,2.0478.0312,3.08.0933a44.15,44.15,0,0,1,25.749,9.9843,60.3849,60.3849,0,0,0,13.7744-5.7719,11.697,11.697,0,0,1,1.5234-.7388,10.05,10.05,0,0,1,3.5323-.8735c.1826-.0118.3867-.0132.5908-.0132h.1592A10.0125,10.0125,0,0,1,185.9033,16c-.169.5254-.3516,1.0571-.5459,1.5879a10.0073,10.0073,0,0,1,3.9189,14.86A72.28,72.28,0,0,1,178.7929,44.97c-1.6406,1.5322-3.3388,2.9819-4.9638,4.336a108.435,108.435,0,0,1-3.7325,27.9912,115.7571,115.7571,0,0,1-19.9531,40.6381,106.2017,106.2017,0,0,1-28.9639,26.15,104.245,104.245,0,0,1-31.0141,12.6319A118.4107,118.4107,0,0,1,63.5952,159.67Zm-45.898-23.2011A95.6175,95.6175,0,0,0,35.4057,143.67a97.9336,97.9336,0,0,0,24.6275,3.9414c1.1845.0283,2.3681.0489,3.562.0489a106.3883,106.3883,0,0,0,23.8711-2.6495,92.4929,92.4929,0,0,0,27.4546-11.1767,94.1312,94.1312,0,0,0,25.6953-23.209,103.7188,103.7188,0,0,0,17.8877-36.4429,95.8915,95.8915,0,0,0,3.2822-27.9482,4.69,4.69,0,0,1,1.8252-4.0552l.2373-.1943c2.2617-1.8574,4.6016-3.7783,6.7519-5.7862a52.5691,52.5691,0,0,0,4.959-5.36,54.8793,54.8793,0,0,1-13.63,2.8179c-.0449.0029-.0908.0044-.1357.0044a2,2,0,0,1-1.126-3.6519,36.669,36.669,0,0,0,8.458-7.7563,34.1955,34.1955,0,0,0,3.4229-5.2994,72.1869,72.1869,0,0,1-16.71,5.7657,3.4445,3.4445,0,0,1-.8232.0918,4.4,4.4,0,0,1-2.9541-1.1055,32.3537,32.3537,0,0,0-21.4854-9.6382c-.7509-.0449-1.5234-.0664-2.36-.0664a31.4868,31.4868,0,0,0-22.1,8.6152C97.6943,28.436,94.1528,38.2358,95.59,49.7422c.1.7812.188,1.5674.2915,2.4878l.1011.8945A2,2,0,0,1,93.9951,55.35c-.0454,0-.0908-.0015-.1367-.0049C64.769,53.353,41.0957,41.7925,21.5883,20.0278c-6.413,16.5205-2.6474,30.2339,11.4585,41.8482A2,2,0,0,1,31.7754,65.42l-.0323-.0005a34.65,34.65,0,0,1-13.36-2.999C20.3862,77.7988,29.0175,87.585,44.68,92.2842a2,2,0,0,1-.0405,3.8437A35.3829,35.3829,0,0,1,35.0654,97.44c-1.0952,0-2.2095-.05-3.3359-.1484a34.111,34.111,0,0,0,29.3911,20.2129,2,2,0,0,1,1.0913,3.5742A71.5561,71.5561,0,0,1,17.6972,136.4688Z"/></svg>
