
<svg version="1.1" id="Layer_1" xmlns="http://www.w3.org/2000/svg" xmlns:xlink="http://www.w3.org/1999/xlink" x="0px" y="0px"
	 viewBox="0 0 1280.6 1280.6" style="enable-background:new 0 0 1280.6 1280.6;" xml:space="preserve">
<style type="text/css">
	.st0{fill:#FFFFFF;stroke:#000000;stroke-width:5;stroke-miterlimit:10;}
</style>
<path class="st0" d="M640.3,58.4c19.3,0,38.4,0.9,57.2,2.8c9.6,0.9,17.9-6.9,17.9-17V19.6c0-9.4-7.3-17.1-16.3-17.1H581.5
	c-9,0-16.3,7.6-16.3,17.1v24.7c0,10.1,8.3,17.9,17.9,17C601.9,59.4,621,58.4,640.3,58.4z"/>
<path class="st0" d="M715.4,139c0-8.7-6.3-16-14.5-17c-19.9-2.3-40.1-3.5-60.5-3.5s-40.7,1.2-60.5,3.5c-8.3,1-14.5,8.3-14.5,17
	v409.2c0,9.4-7.3,17.1-16.3,17.1l-410.8-0.3c-8.2,0-15.2,6.4-16.2,14.9c-2.3,19.8-3.5,40-3.5,60.4c0,20.2,1.2,40.1,3.4,59.7
	c1,8.6,7.9,15,16.2,15l410.9,0.3c9,0,16.3,7.6,16.3,17.1v409.3c0,8.7,6.3,16,14.5,17c19.9,2.3,40.1,3.5,60.5,3.5s40.7-1.2,60.5-3.5
	c8.3-1,14.5-8.3,14.5-17V732.5c0-9.4,7.3-17.1,16.3-17.1l410.8,0.3c8.2,0,15.2-6.4,16.2-14.9c2.3-19.8,3.5-40,3.5-60.4
	c0-20.2-1.2-40.1-3.4-59.7c-1-8.6-7.9-15-16.2-15l-410.9-0.3c-9,0-16.3-7.6-16.3-17.1V139z"/>
<path class="st0" d="M1235.7,565.6c-9.6,0-17.2,8.7-16.2,18.7c1.8,18.4,2.7,37.1,2.7,56c0,19.1-0.9,38.1-2.7,56.7
	c-1,10,6.6,18.7,16.2,18.7l26.1,0c9,0,16.3-7.6,16.3-17l0.1-116c0-9.4-7.3-17.1-16.3-17.1L1235.7,565.6z"/>
<path class="st0" d="M58.5,640.3c0-19.1,0.9-38.1,2.7-56.7c1-10-6.6-18.7-16.2-18.7l-26.1,0c-9,0-16.3,7.6-16.3,17l-0.1,116
	c0,9.4,7.3,17.1,16.3,17.1l26.1,0c9.6,0,17.2-8.7,16.2-18.7C59.4,677.9,58.5,659.2,58.5,640.3z"/>
<path class="st0" d="M640.3,1222.1c-19.3,0-38.4-0.9-57.2-2.8c-9.6-0.9-17.9,6.9-17.9,17v24.7c0,9.4,7.3,17.1,16.3,17.1h117.6
	c9,0,16.3-7.6,16.3-17.1v-24.7c0-10.1-8.3-17.9-17.9-17C678.7,1221.2,659.6,1222.1,640.3,1222.1z"/>
</svg>
