<svg id="Layer_1" data-name="Layer 1" xmlns="http://www.w3.org/2000/svg" viewBox="0 0 138.5751 107.0582"><defs><style>.cls-1{fill:#fff;}</style></defs><title>mail</title><path class="cls-1" d="M23.766,0h89.04A8.4161,8.4161,0,0,0,113.82.1935c1.513.1074,3.0457.075,4.5389.304,10.7836,1.6537,20.0024,10.8909,20.1161,22.8769.1886,19.8758.0568,39.7546.0386,59.6322a20.6774,20.6774,0,0,1-.3037,3.811c-1.8679,9.8612-7.6456,16.2759-17.1955,19.3013-3.3328,1.0558-6.7751.9367-10.2177.934q-43.2546-.0341-86.5092-.0436a26.48,26.48,0,0,1-6.0476-.7154A23.911,23.911,0,0,1,0,83.1626Q.03,53.4664.0149,23.77a20.9355,20.9355,0,0,1,.21-2.8588A23.8665,23.8665,0,0,1,19.3128.66C20.783.368,22.2809.2164,23.766,0ZM126.5253,28.5625c-.5961.5283-.9216.8171-1.2474,1.1056A260.3706,260.3706,0,0,1,101.22,48.8989C95.0112,53.206,88.6541,57.252,81.6035,60.113c-6.5849,2.6722-13.246,3.387-19.9617.7836a91.0071,91.0071,0,0,1-11.3081-5.1625C38.7259,49.2869,28.251,41.2066,18.0393,32.775c-1.9581-1.6167-3.8924-3.2625-5.98-5.0143-.0283.3389-.0508.4829-.0508.6268-.0013,18.2351-.06,36.47.03,54.705A11.9134,11.9134,0,0,0,24.2405,94.9949q45.1677.017,90.3354-.0045a11.67,11.67,0,0,0,8.239-3.34c2.879-2.7236,3.7331-6.1757,3.7254-10.0128q-.0519-25.793-.015-51.586Zm-3.6589-12.9157c-.4885-.4214-.8295-.7459-1.2009-1.0308a12.737,12.737,0,0,0-8.1006-2.4278c-29.717.0336-59.434.0166-89.1508.1035a20.5857,20.5857,0,0,0-5.69,1.2034,12.1873,12.1873,0,0,0-2.6594,1.6527c1.74,1.512,3.2705,2.854,4.8135,4.1817C31.254,28.257,41.9769,36.72,53.7374,43.7861a60.0483,60.0483,0,0,0,12.7588,6,11.8313,11.8313,0,0,0,7.8875.0121A64.8777,64.8777,0,0,0,83.1429,45.97C97.7835,37.8259,110.3292,26.9159,122.8664,15.6468Z" transform="translate(0)"/></svg>